<?xml version="1.0" encoding="UTF-8"?> <svg xmlns="http://www.w3.org/2000/svg" id="Ebene_1" data-name="Ebene 1" width="300" height="100" viewBox="0 0 300 100"><defs><style>.cls-1{fill:#e20613;}.cls-2{fill:#fff;}.cls-3{fill:#1d1d1b;}.cls-4{fill:#868686;}</style></defs><polygon class="cls-1" points="10 63.65 10 98.73 291 98.73 291 63.65 10 63.65 10 63.65"></polygon><path class="cls-2" d="M33,92V70.38H31.37V89.07L18.91,70.38H17.27V92h1.64V73.19L31.37,92Zm16.88-7.3c0-2.09-.27-4.34-1.81-5.88a5.94,5.94,0,0,0-8.13,0c-1.54,1.54-1.81,3.79-1.81,5.88s.27,4.33,1.81,5.88a6,6,0,0,0,8.13,0c1.54-1.55,1.81-3.79,1.81-5.88Zm-1.54,0c0,1.7-.09,3.67-1.3,4.88a4.33,4.33,0,0,1-6.07,0c-1.21-1.21-1.3-3.18-1.3-4.88S39.76,81,41,79.77a4.33,4.33,0,0,1,6.07,0c1.21,1.21,1.3,3.18,1.3,4.88Zm15.6-6.09a4.57,4.57,0,0,0-3.51-1.4,5,5,0,0,0-4.28,2.12V77.35H54.61V92h1.54V83c0-2.36,1.4-4.42,3.91-4.42a3.34,3.34,0,0,1,2.76,1.15l1.12-1.12ZM76.12,92V70.38H74.58v8.84a4.88,4.88,0,0,0-4.34-2.06,5.12,5.12,0,0,0-3.57,1.27c-1.49,1.49-1.88,3.91-1.88,6.22s.39,4.73,1.88,6.21a5.07,5.07,0,0,0,3.57,1.27,4.87,4.87,0,0,0,4.34-2V92Zm-1.54-7.3c0,3-.55,6.12-4.12,6.12s-4.13-3.09-4.13-6.12.55-6.12,4.13-6.12,4.12,3.09,4.12,6.12ZM91,78.56a4.57,4.57,0,0,0-3.51-1.4,5,5,0,0,0-4.28,2.12V77.35H81.7V92h1.54V83c0-2.36,1.4-4.42,3.91-4.42a3.34,3.34,0,0,1,2.76,1.15L91,78.56ZM105,92V82.62c0-3.37-2-5.46-5.39-5.46a5.43,5.43,0,0,0-4.3,1.91V70.38H93.8V92h1.54V82.89c0-2.76,1.51-4.36,4.12-4.36s4,1.54,4,4.36V92Zm16.25-7v-.69c0-4.46-2.21-7.13-5.85-7.13s-5.85,2.79-5.85,7.49c0,4.88,2.18,7.48,6.21,7.48a6.62,6.62,0,0,0,5.28-2.24L119.92,89a5.08,5.08,0,0,1-4,1.76c-3.1,0-4.76-2.06-4.76-5.76Zm-1.55-1.24h-8.6a6.86,6.86,0,0,1,.51-2.76,4.16,4.16,0,0,1,7.58,0,6.86,6.86,0,0,1,.51,2.76Zm8-11.46v-1.9h-1.9v1.9ZM127.52,92V77.34H126V92Zm16.82,0V82.62a5.48,5.48,0,0,0-1.51-4.06,5.92,5.92,0,0,0-8.18.51V77.35H133.1V92h1.55V82.89c0-2.76,1.51-4.36,4.12-4.36s4,1.54,4,4.36V92Zm12.89-7.27V83.26h-7.94v1.42Zm26.6-14.3h-1.72l-4.55,18.76-5-18.76h-1.7l-5,18.76-4.54-18.76h-1.74L164.92,92h1.67l5.09-18.79L176.77,92h1.67l5.39-21.57ZM196.71,85v-.69c0-4.46-2.21-7.13-5.85-7.13S185,80,185,84.65c0,4.88,2.17,7.48,6.21,7.48a6.6,6.6,0,0,0,5.27-2.24L195.35,89a5.08,5.08,0,0,1-4,1.76c-3.1,0-4.76-2.06-4.76-5.76Zm-1.55-1.24h-8.6a6.86,6.86,0,0,1,.51-2.76,4.16,4.16,0,0,1,7.58,0,6.69,6.69,0,0,1,.51,2.76Zm16.58,4.06c0-2.85-1.84-3.6-4.27-3.82l-2.36-.21c-2.06-.18-3-.94-3-2.45,0-1.8,1.34-2.83,3.74-2.83A6.76,6.76,0,0,1,210,79.74l1-1a8.55,8.55,0,0,0-5.12-1.55c-3.19,0-5.25,1.64-5.25,4.16,0,2.27,1.45,3.57,4.4,3.81l2.42.21c1.91.19,2.79,1,2.79,2.46,0,2-1.54,3-4.39,3A6.16,6.16,0,0,1,201.05,89L200,90a8,8,0,0,0,5.91,2.09c3.57,0,5.84-1.66,5.84-4.33ZM221,92V90.59h-1.06c-1.55,0-2.25-.91-2.25-2.43V78.49H221V77.35h-3.31V72.68h-1.54v4.67h-2v1.14h2v9.65c0,2.21,1.21,3.81,3.52,3.81Zm9.64-13.46V77.35h-3.31V74.16c0-1.51.7-2.42,2.25-2.42h1.06V70.38h-1.34c-2.3,0-3.51,1.6-3.51,3.81v3.16h-2v1.14h2V92h1.54V78.49ZM243.75,92V82c0-3.06-1.82-4.79-5.67-4.79-2.36,0-3.91.52-5.15,2.24l1.12,1c.91-1.34,2-1.85,4-1.85,3,0,4.12,1.24,4.12,3.57v1.64h-4.73c-3.18,0-5.08,1.54-5.08,4.21a4.18,4.18,0,0,0,1.05,2.85c.94,1,2.15,1.33,4.31,1.33a5.43,5.43,0,0,0,4.45-1.63V92Zm-1.55-5.09a3.76,3.76,0,0,1-.81,2.79,4.83,4.83,0,0,1-3.64,1.12c-2.64,0-3.82-.91-3.82-2.85S235.14,85,237.66,85h4.54v1.88ZM254,92V90.59h-1.06c-1.73,0-2.24-.82-2.24-2.45V70.38h-1.55V88.17c0,2.27,1.15,3.78,3.52,3.78Zm13.69-7v-.69c0-4.46-2.21-7.13-5.84-7.13S256,80,256,84.65c0,4.88,2.18,7.48,6.21,7.48a6.6,6.6,0,0,0,5.27-2.24L266.32,89a5.06,5.06,0,0,1-4,1.76c-3.09,0-4.76-2.06-4.76-5.76Zm-1.54-1.24h-8.61a6.68,6.68,0,0,1,.52-2.76,4.16,4.16,0,0,1,7.58,0,6.86,6.86,0,0,1,.51,2.76ZM283.63,92V82.62a5.52,5.52,0,0,0-1.51-4.06,5.93,5.93,0,0,0-8.19.51V77.35h-1.54V92h1.54V82.89c0-2.76,1.52-4.36,4.12-4.36s4,1.54,4,4.36V92Z"></path><path class="cls-3" d="M117.13,55.55V34H115.5V55.55Zm17.06,0V46.22a5.5,5.5,0,0,0-1.51-4.07,5.95,5.95,0,0,0-8.19.52V40.94H123V55.55h1.54V46.49c0-2.76,1.52-4.37,4.13-4.37s4,1.55,4,4.37v9.06Zm16.49,0V46.22a5.5,5.5,0,0,0-1.51-4.07,5.95,5.95,0,0,0-8.19.52V40.94h-1.54V55.55H141V46.49c0-2.76,1.52-4.37,4.13-4.37s4,1.55,4,4.37v9.06Zm16.15-7.3c0-2.09-.27-4.34-1.81-5.88a5.94,5.94,0,0,0-8.13,0c-1.54,1.54-1.81,3.79-1.81,5.88s.27,4.33,1.81,5.88a6,6,0,0,0,8.13,0c1.54-1.55,1.81-3.79,1.81-5.88Zm-1.54,0c0,1.69-.09,3.67-1.3,4.88a4.33,4.33,0,0,1-6.07,0c-1.21-1.21-1.3-3.19-1.3-4.88s.09-3.67,1.3-4.88a4.31,4.31,0,0,1,6.07,0c1.21,1.21,1.3,3.18,1.3,4.88Zm15.49-7.31h-1.7l-4.39,12.8-4.4-12.8H168.6l5.33,14.61h1.51l5.34-14.61ZM193.5,55.55v-10c0-3.06-1.81-4.79-5.66-4.79-2.37,0-3.91.52-5.15,2.24l1.11,1c.92-1.33,2-1.85,4-1.85,3,0,4.12,1.25,4.12,3.58v1.64h-4.73c-3.18,0-5.09,1.54-5.09,4.21a4.22,4.22,0,0,0,1.06,2.85c.94,1,2.15,1.33,4.3,1.33A5.44,5.44,0,0,0,192,54.1v1.45ZM192,50.46a3.73,3.73,0,0,1-.82,2.79,4.81,4.81,0,0,1-3.64,1.12c-2.64,0-3.81-.91-3.81-2.85s1.21-2.94,3.72-2.94H192v1.88ZM204,55.55V54.19H203c-1.55,0-2.24-.91-2.24-2.43V42.09H204V40.94h-3.3V36.28h-1.55v4.66h-2v1.15h2v9.64c0,2.22,1.21,3.82,3.52,3.82Zm5.91-19.67V34H208v1.91Zm-.18,19.67V40.94h-1.54V55.55Zm16.33-7.3c0-2.09-.27-4.34-1.81-5.88a5.94,5.94,0,0,0-8.13,0c-1.54,1.54-1.81,3.79-1.81,5.88s.27,4.33,1.81,5.88a6,6,0,0,0,8.13,0c1.54-1.55,1.81-3.79,1.81-5.88Zm-1.54,0c0,1.69-.09,3.67-1.3,4.88a4.33,4.33,0,0,1-6.07,0c-1.21-1.21-1.3-3.19-1.3-4.88s.09-3.67,1.3-4.88a4.31,4.31,0,0,1,6.07,0c1.21,1.21,1.3,3.18,1.3,4.88Zm17.36,7.3V46.22a5.5,5.5,0,0,0-1.51-4.07,5.94,5.94,0,0,0-8.18.52V40.94h-1.55V55.55h1.55V46.49c0-2.76,1.51-4.37,4.12-4.37s4,1.55,4,4.37v9.06Z"></path><path class="cls-3" d="M127.19,23V21.52H115.74L127.19,2.85V1.4H114.53V2.85h10.91l-11.37,18.4V23Zm15.46,0V8.37h-1.54v9.06c0,2.75-1.52,4.36-4.13,4.36s-4-1.54-4-4.36V8.37h-1.54V17.7a5.48,5.48,0,0,0,1.51,4.06,6,6,0,0,0,8.19-.51V23Zm17.24,0L154,13.82l4.82-5.45h-2l-7.24,8.24V1.4h-1.54V23h1.54V18.79L153,14.94l5,8Zm14.76,0V8.37h-1.54v9.06c0,2.75-1.52,4.36-4.12,4.36s-4-1.54-4-4.36V8.37h-1.55V17.7a5.48,5.48,0,0,0,1.52,4.06,5.35,5.35,0,0,0,3.88,1.39,5.42,5.42,0,0,0,4.3-1.9V23Zm16.67,0V13.64a5.5,5.5,0,0,0-1.51-4.07,5.95,5.95,0,0,0-8.19.52V8.37h-1.54V23h1.54V13.91c0-2.76,1.52-4.37,4.13-4.37s4,1.55,4,4.37V23ZM201.87,9.51V8.37h-3.31V5.18c0-1.52.7-2.43,2.25-2.43h1.06V1.4h-1.33C198.23,1.4,197,3,197,5.21V8.37h-2V9.51h2V23h1.54V9.51ZM210.54,23V21.61h-1.07c-1.54,0-2.24-.91-2.24-2.43V9.51h3.31V8.37h-3.31V3.7h-1.54V8.37h-2V9.51h2v9.64c0,2.22,1.21,3.82,3.51,3.82Zm21.94,0V1.4h-1.54v8.84a4.88,4.88,0,0,0-4.34-2.06A5.1,5.1,0,0,0,223,9.45c-1.49,1.49-1.88,3.91-1.88,6.22s.39,4.73,1.88,6.21a5.06,5.06,0,0,0,3.57,1.27,4.85,4.85,0,0,0,4.34-2.06V23Zm-1.54-7.3c0,3-.55,6.12-4.13,6.12s-4.12-3.09-4.12-6.12.55-6.13,4.12-6.13,4.13,3.1,4.13,6.13ZM249,23V8.37h-1.55v9.06c0,2.75-1.51,4.36-4.12,4.36s-4-1.54-4-4.36V8.37h-1.54V17.7a5.48,5.48,0,0,0,1.51,4.06,5.95,5.95,0,0,0,8.18-.51V23Zm14.76-13.4a4.6,4.6,0,0,0-3.52-1.39,5,5,0,0,0-4.27,2.12V8.37h-1.55V23h1.55V14c0-2.37,1.39-4.43,3.91-4.43a3.38,3.38,0,0,1,2.76,1.15l1.12-1.12Zm11.93,11.34-1.06-1a4.45,4.45,0,0,1-3.76,1.85A4.55,4.55,0,0,1,267,19.85a6.83,6.83,0,0,1-1-4.18,6.86,6.86,0,0,1,1-4.19,4.55,4.55,0,0,1,3.88-1.94,4.48,4.48,0,0,1,3.76,1.85l1.06-1a5.72,5.72,0,0,0-4.82-2.24c-4,0-6.42,2.85-6.42,7.49s2.45,7.48,6.42,7.48a5.7,5.7,0,0,0,4.82-2.24ZM291,23V13.64c0-3.37-2.06-5.46-5.4-5.46a5.43,5.43,0,0,0-4.3,1.91V1.4h-1.54V23h1.54V13.91c0-2.76,1.52-4.37,4.12-4.37s4,1.55,4,4.37V23Z"></path><polygon class="cls-4" points="40.25 55.56 40.25 46.64 22.42 46.64 40.25 23.4 40.25 15.86 10.99 15.86 10.99 24.77 27.6 24.77 10 48.01 10 55.56 40.25 55.56 40.25 55.56"></polygon><path class="cls-4" d="M78.57,55.56V1.31H68.66V19.36c-2.59-2.89-5.64-4-9.68-4A13.82,13.82,0,0,0,49.31,19c-4,4-4,10.75-4,16.69s.08,12.8,4,16.76A14,14,0,0,0,59.06,56c4.19,0,7.09-1.14,9.83-4.19v3.74ZM68.66,35.67c0,6.48-.84,11.43-6.78,11.43s-6.7-5-6.7-11.43.76-11.35,6.7-11.35,6.78,4.87,6.78,11.35Z"></path><polygon class="cls-1" points="98.44 11.27 98.44 1.36 88.54 1.36 88.54 11.27 98.44 11.27 98.44 11.27"></polygon><polygon class="cls-4" points="98.44 55.56 98.44 15.82 88.54 15.82 88.54 55.56 98.44 55.56 98.44 55.56"></polygon></svg> 