<svg xmlns="http://www.w3.org/2000/svg" viewBox="0 0 338.68 346"><defs><style>.cls-1{fill:#4eaf47;}.cls-2{fill:#0778bc;}</style></defs><g id="Ebene_2" data-name="Ebene 2"><g id="Layer_1" data-name="Layer 1"><path class="cls-1" d="M203.73,212.91C187.48,229.16,131.78,226,131.78,226s-3.17-55.69,13.08-72S216.81,141,216.81,141,220,196.65,203.73,212.91Z"/><rect class="cls-1" x="241.67" y="20.57" width="28.15" height="28.15" rx="2.19"/><rect class="cls-2" x="291.6" y="53.3" width="47.08" height="47.08" rx="3.16"/><rect class="cls-2" x="284.77" width="19.35" height="19.35" rx="1.55"/><rect class="cls-2" x="43.26" y="302.53" width="28.15" height="28.15" rx="2.31"/><rect class="cls-1" y="242.89" width="47.08" height="47.08" rx="3.79" transform="translate(47.08 532.87) rotate(180)"/><rect class="cls-1" x="5.19" y="326.65" width="19.35" height="19.35" rx="1.29" transform="translate(29.73 672.65) rotate(-180)"/><path class="cls-2" d="M252.53,246.06a22,22,0,1,1,22-22A22,22,0,0,1,252.53,246.06Zm0-26.21a4.19,4.19,0,1,0,4.19,4.19A4.2,4.2,0,0,0,252.53,219.85Z"/><path class="cls-1" d="M63.65,149.22a23.58,23.58,0,1,1,23.58-23.58A23.6,23.6,0,0,1,63.65,149.22Zm0-29.33a5.75,5.75,0,1,0,5.75,5.75A5.76,5.76,0,0,0,63.65,119.89Z"/><path class="cls-2" d="M174.36,280.71A97,97,0,0,1,77.68,176.83c3.36-47.74,42-86.41,89.77-89.73A96.87,96.87,0,0,1,270.38,196.89a93.12,93.12,0,0,1-1.79,9.59l-.08.36c-.45,1.92-1,3.93-1.71,6.13-.19.61-.4,1.26-.63,1.94l-16.86-5.81c.17-.5.33-1,.49-1.5.41-1.31.79-2.57,1.11-3.84v0l.26-1.1a73.62,73.62,0,0,0,1.54-8.14,79.1,79.1,0,0,0-87.38-89.31,79.1,79.1,0,1,0,57.25,141.28,8.83,8.83,0,0,1,11.79,1h0a9,9,0,0,1-1.17,13.29A96.41,96.41,0,0,1,174.36,280.71Z"/><path class="cls-1" d="M184.45,317.49c-78.57,5.9-144.39-56.35-144.39-133.69a134,134,0,0,1,3.63-31c.69-3,1.54-6.06,2.52-9.18.6-2,1.31-4,2.07-6.1l.72-1.86,16.62,6.46L65,143.82c-.59,1.6-1.18,3.31-1.7,5-.88,2.78-1.6,5.44-2.2,8A116.32,116.32,0,0,0,182.47,299.76c57.26-4,103.65-50.4,107.65-107.67A116.27,116.27,0,0,0,93.77,99.79a9,9,0,0,1-12.21.24h0a8.88,8.88,0,0,1-.29-13,134.42,134.42,0,0,1,92.88-37.36c77.34,0,139.6,65.82,133.7,144.38C302.93,259.65,250,312.57,184.45,317.49Z"/></g></g></svg>