<svg xmlns="http://www.w3.org/2000/svg" viewBox="0 0 268.17 268.17"><defs><style>.cls-1{fill:#0778bc;}.cls-2{fill:#4eaf47;}</style></defs><g id="Ebene_2" data-name="Ebene 2"><g id="Layer_1" data-name="Layer 1"><path class="cls-1" d="M212.47,196.35a22,22,0,1,1,22-22A22,22,0,0,1,212.47,196.35Zm0-26.21a4.19,4.19,0,1,0,4.19,4.19A4.2,4.2,0,0,0,212.47,170.14Z"/><path class="cls-2" d="M23.59,99.52A23.58,23.58,0,1,1,47.17,75.94,23.6,23.6,0,0,1,23.59,99.52Zm0-29.33a5.75,5.75,0,1,0,5.74,5.75A5.76,5.76,0,0,0,23.59,70.19Z"/><path class="cls-1" d="M134.29,231A97,97,0,0,1,37.62,127.12c3.35-47.74,42-86.4,89.76-89.73a97,97,0,0,1,103.83,96.7,95.22,95.22,0,0,1-.9,13.09,90.49,90.49,0,0,1-1.78,9.59l-.08.36c-.45,1.92-1,3.93-1.72,6.13-.19.61-.4,1.26-.63,1.94l-16.86-5.8c.17-.51.33-1,.49-1.51.42-1.3.79-2.56,1.11-3.84v0l.27-1.09a74.05,74.05,0,0,0,1.53-8.14,79.09,79.09,0,1,0-30.13,52,8.83,8.83,0,0,1,11.79,1h0a9,9,0,0,1-1.16,13.29A96.38,96.38,0,0,1,134.29,231Z"/><path class="cls-2" d="M144.38,267.79C65.82,273.68,0,211.43,0,134.09a133.53,133.53,0,0,1,3.63-31c.68-3,1.53-6.06,2.52-9.18.59-2,1.3-4,2.07-6.1l.71-1.86,16.62,6.46-.66,1.73c-.6,1.6-1.18,3.31-1.7,5-.88,2.78-1.61,5.44-2.2,8A116.28,116.28,0,0,0,142.4,250.05c57.27-4,103.66-50.4,107.65-107.66A116.27,116.27,0,0,0,53.7,50.09a8.94,8.94,0,0,1-12.2.23h0a8.88,8.88,0,0,1-.3-13A134.43,134.43,0,0,1,134.09,0c77.34,0,139.59,65.82,133.7,144.39C262.87,209.94,209.94,262.87,144.38,267.79Z"/></g></g></svg>