<?xml version="1.0" standalone="no"?>
<!DOCTYPE svg PUBLIC "-//W3C//DTD SVG 20010904//EN"
 "http://www.w3.org/TR/2001/REC-SVG-20010904/DTD/svg10.dtd">
<svg version="1.0" xmlns="http://www.w3.org/2000/svg"
 width="692.000000pt" height="692.000000pt" viewBox="0 0 692.000000 692.000000"
 preserveAspectRatio="xMidYMid meet">
<metadata>
Created by potrace 1.14, written by Peter Selinger 2001-2017
</metadata>
<g transform="translate(0.000000,692.000000) scale(0.100000,-0.100000)"
fill="#000000" stroke="none">
<path d="M5782 6907 c-16 -19 -14 -355 2 -365 6 -4 89 -7 183 -8 179 -1 203 4
190 41 -4 8 -2 17 4 20 5 4 6 11 2 18 -3 6 -6 49 -4 96 1 48 2 91 2 96 -3 77
-6 101 -15 107 -6 4 -88 8 -182 8 -129 0 -174 -3 -182 -13z"/>
<path d="M4926 6494 c-14 -13 -16 -53 -16 -269 0 -238 1 -255 19 -267 15 -11
76 -13 270 -13 226 1 252 2 263 18 18 25 17 510 -2 532 -19 22 -512 22 -534
-1z"/>
<path d="M3408 5925 c-2 -2 -34 -6 -73 -9 -71 -6 -140 -14 -185 -22 -14 -3
-41 -7 -60 -10 -56 -7 -250 -55 -310 -76 -30 -10 -55 -18 -55 -18 0 1 -7 -1
-95 -31 -85 -29 -425 -193 -452 -219 -12 -11 -26 -20 -30 -20 -25 0 -276 -187
-386 -288 -83 -75 -104 -108 -108 -169 -5 -60 40 -153 75 -153 6 0 11 -4 11
-8 0 -14 62 -29 108 -26 48 3 83 26 196 129 6 6 34 28 61 50 28 22 52 42 55
45 35 36 279 184 390 237 122 58 318 133 390 148 8 2 53 12 100 23 47 11 105
23 130 27 25 3 52 8 60 10 65 18 461 26 580 12 117 -14 202 -30 310 -56 66
-17 69 -18 145 -41 253 -79 508 -215 731 -387 92 -72 271 -244 334 -322 19
-23 45 -55 58 -69 20 -24 66 -87 112 -157 85 -127 183 -321 238 -470 37 -101
90 -280 97 -329 3 -18 15 -87 30 -174 31 -181 21 -544 -22 -747 -2 -11 -8 -44
-14 -74 -23 -119 -115 -375 -183 -511 -142 -282 -341 -540 -565 -730 -29 -25
-58 -50 -65 -56 -101 -95 -454 -301 -596 -349 -3 -1 -16 -6 -30 -12 -80 -33
-278 -91 -365 -107 -181 -34 -285 -44 -460 -46 -79 -1 -212 7 -265 15 -19 3
-57 8 -85 11 -27 3 -66 9 -85 14 -19 5 -46 11 -60 14 -96 17 -295 80 -414 131
-177 76 -328 161 -471 267 -182 135 -342 294 -477 473 -69 92 -98 133 -98 139
0 3 -13 25 -30 49 -16 25 -30 49 -30 55 0 6 -4 12 -8 14 -20 8 -202 418 -186
418 3 0 0 9 -6 21 -6 11 -13 28 -15 37 -1 9 -10 42 -19 72 -8 30 -18 70 -21
89 -3 19 -8 37 -10 40 -2 4 -6 27 -10 51 -3 25 -11 74 -16 110 -6 36 -12 103
-14 148 -2 46 -7 92 -10 102 -3 10 -2 21 4 24 5 3 6 21 1 40 -4 19 -6 37 -4
39 2 2 6 48 9 102 3 54 7 110 10 124 2 14 7 45 10 68 15 108 12 93 40 203 9
36 18 76 21 89 10 48 21 58 68 59 49 2 118 23 179 54 184 93 292 335 236 530
-7 24 -13 45 -14 48 -4 25 -58 113 -93 151 -181 201 -489 209 -683 16 -33 -32
-59 -65 -59 -73 0 -8 -4 -14 -9 -14 -11 0 -47 -90 -60 -149 -15 -69 -6 -183
20 -256 12 -36 26 -65 31 -65 4 0 8 -6 8 -13 0 -7 14 -29 31 -50 29 -35 30
-41 21 -75 -35 -123 -52 -192 -58 -227 -3 -21 -11 -48 -16 -60 -6 -11 -10 -21
-9 -23 3 -2 -6 -77 -14 -132 -20 -121 -27 -480 -12 -615 13 -118 15 -139 22
-170 9 -46 26 -138 30 -160 1 -11 11 -46 20 -79 9 -32 18 -64 19 -70 3 -15 45
-146 56 -171 4 -11 18 -47 30 -80 80 -213 230 -471 400 -685 65 -83 271 -297
356 -370 69 -59 335 -250 349 -250 1 0 32 -17 66 -38 72 -43 192 -102 208
-102 6 0 11 -4 11 -10 0 -5 8 -10 18 -10 10 0 22 -4 28 -9 5 -5 36 -18 69 -30
33 -12 69 -26 80 -31 21 -9 203 -66 246 -76 66 -16 219 -46 254 -50 22 -3 51
-7 65 -9 72 -13 181 -19 325 -19 147 0 350 10 364 18 3 2 29 6 56 10 321 38
750 201 1050 399 81 54 229 164 279 207 118 103 316 310 377 395 18 25 36 45
41 45 4 0 8 5 8 10 0 6 17 34 38 63 49 66 143 220 167 272 11 22 22 42 25 45
13 11 137 300 145 340 2 8 11 35 19 59 9 24 18 53 21 65 2 12 11 46 19 76 8
30 17 66 20 80 3 14 10 43 15 65 5 22 12 60 16 85 3 25 8 56 11 70 19 98 33
417 19 440 -3 5 -1 10 5 10 6 0 8 5 5 10 -4 6 -9 48 -11 93 -2 45 -6 98 -9
117 -2 19 -7 55 -10 80 -8 61 -15 102 -30 170 -13 60 -15 71 -20 90 -3 11 -7
30 -10 43 -8 37 -76 250 -90 282 -7 17 -21 50 -31 75 -55 134 -222 440 -245
448 -5 2 -9 8 -9 13 0 8 -65 106 -80 119 -3 3 -31 37 -63 77 -31 40 -67 83
-80 97 -105 114 -181 187 -282 270 -88 73 -90 74 -150 116 -27 19 -52 37 -55
40 -6 7 -126 83 -178 112 -65 37 -175 93 -242 122 -36 16 -78 34 -95 42 -118
52 -396 129 -555 154 -41 6 -86 13 -100 16 -84 13 -482 28 -492 19z m-2001
-1415 c8 0 53 -53 54 -63 0 -7 2 -21 4 -31 5 -25 -17 -76 -41 -98 -69 -61
-189 0 -186 94 2 64 78 123 137 106 16 -4 31 -8 32 -8z"/>
<path d="M5952 5849 c-45 -17 -46 -25 -42 -846 0 -40 5 -57 21 -72 20 -18 39
-19 442 -19 412 0 450 3 469 32 4 6 8 205 8 442 0 423 0 431 -21 450 -19 17
-44 18 -440 19 -231 0 -428 -3 -437 -6z"/>
<path d="M3497 5184 c-1 -1 -38 -5 -82 -8 -44 -3 -91 -8 -105 -10 -14 -2 -44
-7 -67 -10 -157 -22 -397 -103 -563 -189 -96 -50 -259 -156 -330 -215 -96 -79
-254 -244 -326 -338 -67 -89 -181 -270 -186 -296 -2 -7 -6 -15 -9 -18 -9 -9
-45 -92 -82 -190 -62 -166 -95 -314 -113 -505 -5 -52 -5 -270 0 -315 12 -115
20 -172 32 -225 11 -51 19 -85 48 -195 16 -59 76 -204 121 -295 119 -233 254
-407 456 -587 75 -68 64 -59 156 -126 40 -28 76 -52 80 -52 3 0 14 -6 22 -14
44 -38 274 -147 406 -191 50 -17 180 -52 220 -59 17 -3 41 -8 55 -11 25 -6 56
-10 155 -21 28 -3 106 -6 175 -6 129 -1 185 4 335 26 152 22 387 100 542 180
201 104 324 193 355 255 36 75 17 164 -47 219 -38 33 -110 46 -160 29 -31 -10
-177 -106 -183 -119 -2 -5 -8 -8 -13 -8 -5 0 -27 -11 -49 -25 -22 -14 -46 -25
-55 -25 -8 0 -15 -3 -15 -8 0 -6 -100 -54 -120 -58 -3 0 -14 -4 -25 -8 -70
-27 -99 -37 -156 -51 -73 -19 -92 -23 -134 -29 -16 -3 -50 -8 -75 -12 -94 -14
-375 -8 -460 11 -14 3 -38 8 -55 10 -68 12 -212 58 -303 97 -176 75 -329 176
-465 307 -79 75 -227 251 -227 269 0 5 -9 17 -20 27 -11 10 -17 21 -15 26 3 4
1 10 -4 13 -25 16 -148 293 -166 376 -2 8 -4 15 -5 15 -1 0 -3 7 -5 15 -28
137 -36 177 -42 236 -8 81 -8 240 0 339 3 39 7 70 7 70 1 0 4 12 6 27 4 23 42
171 58 228 15 51 59 161 77 190 5 8 15 30 24 48 18 41 116 191 163 252 41 52
251 260 263 260 4 0 14 6 21 13 26 25 116 87 126 87 6 0 17 6 24 13 30 30 191
105 304 141 251 81 503 101 759 60 22 -3 49 -7 60 -9 11 -2 21 -4 23 -5 3 -3
12 -5 57 -15 22 -4 45 -10 50 -14 6 -3 12 -6 15 -6 94 -12 418 -182 508 -265
12 -11 24 -20 27 -20 13 0 199 -190 238 -242 23 -32 45 -58 49 -58 5 0 8 -4 8
-10 0 -5 20 -40 44 -77 88 -137 175 -345 201 -483 8 -39 14 -73 20 -100 24
-111 24 -400 1 -510 -2 -8 -7 -34 -11 -58 -9 -50 -9 -50 -83 -67 -102 -24
-144 -48 -217 -121 -43 -44 -102 -136 -93 -147 2 -2 -3 -12 -11 -21 -24 -29
-25 -202 -1 -272 56 -163 194 -279 356 -300 102 -13 172 0 264 47 245 126 312
447 139 665 -23 29 -29 44 -24 64 4 14 9 33 11 43 2 10 5 26 8 35 3 9 8 35 11
57 3 23 7 52 10 65 6 33 18 213 18 270 -1 58 -12 229 -17 255 -2 11 -7 40 -11
65 -8 55 -65 279 -76 300 -4 8 -17 44 -30 80 -12 36 -26 69 -31 75 -4 5 -8 15
-8 22 0 8 -5 19 -10 26 -6 7 -29 48 -51 92 -34 66 -149 246 -169 265 -3 3 -30
34 -60 70 -89 106 -229 237 -325 305 -16 11 -41 30 -56 43 -15 12 -29 22 -32
22 -3 0 -36 19 -73 42 -61 36 -125 68 -281 139 -24 10 -50 19 -58 19 -8 0 -23
4 -33 9 -19 10 -51 23 -68 26 -6 2 -50 12 -97 24 -47 11 -100 23 -119 26 -18
2 -42 6 -54 9 -42 9 -340 26 -347 20z m1695 -2698 c51 -62 -24 -157 -98 -123
-55 24 -63 109 -14 142 42 28 80 22 112 -19z"/>
<path d="M3997 4104 c-1 -1 -51 -5 -112 -8 -197 -12 -223 -15 -375 -42 -47 -9
-96 -18 -110 -20 -51 -9 -197 -57 -255 -83 -33 -15 -83 -44 -112 -64 -51 -37
-123 -116 -123 -135 0 -6 -3 -12 -7 -14 -16 -7 -111 -238 -98 -238 2 0 -2 -18
-10 -39 -7 -22 -16 -54 -19 -73 -3 -18 -8 -43 -10 -55 -3 -11 -8 -43 -12 -70
-3 -26 -8 -57 -11 -68 -2 -11 -6 -45 -9 -75 -2 -30 -7 -80 -10 -110 -11 -123
-16 -590 -6 -603 15 -18 537 -12 662 8 14 2 54 7 90 10 35 4 67 8 70 10 4 2
31 7 61 10 185 21 423 108 524 193 88 73 181 254 209 407 1 6 5 16 10 23 4 7
6 16 3 19 -3 3 -2 15 3 28 5 13 11 40 15 62 3 21 8 50 10 63 6 27 13 86 20
160 2 25 5 45 5 45 5 0 10 139 14 372 3 197 1 275 -7 280 -9 6 -404 12 -410 7z"/>
<path d="M163 2062 c-31 -2 -48 -10 -63 -29 -19 -25 -20 -39 -20 -445 l0 -419
24 -24 c19 -19 35 -25 63 -23 21 0 49 -2 62 -7 13 -4 21 -3 18 2 -3 5 17 6 48
3 29 -3 61 -3 70 0 9 3 41 3 71 0 30 -3 59 -3 65 0 6 4 27 4 48 0 21 -4 47 -3
59 1 12 5 24 4 27 -1 3 -5 18 -5 33 -1 15 4 39 4 54 0 15 -4 29 -5 32 -2 2 3
53 5 111 5 100 -1 109 1 131 23 13 14 24 36 24 52 1 15 1 205 1 422 l0 395
-24 24 -25 24 -383 2 c-211 0 -403 0 -426 -2z"/>
<path d="M962 852 c-16 -16 -18 -41 -17 -271 0 -218 3 -255 16 -265 11 -7 94
-11 270 -10 l254 0 12 24 c8 17 11 97 10 272 -2 209 -4 250 -17 258 -8 6 -124
10 -262 10 -225 0 -250 -2 -266 -18z"/>
<path d="M191 371 c-6 -13 -8 -285 -2 -354 1 -16 15 -17 189 -15 l187 3 0 190
0 190 -183 1 c-158 1 -184 -1 -191 -15z"/>
</g>
</svg>
